<svg xmlns="http://www.w3.org/2000/svg" viewBox="0 0 64 64">
  <!-- candles -->
  <rect x="20" y="8" width="4" height="10" rx="2" fill="#f4a7b9"/>
  <rect x="30" y="4" width="4" height="12" rx="2" fill="#f4a7b9"/>
  <rect x="40" y="8" width="4" height="10" rx="2" fill="#f4a7b9"/>
  <!-- flames -->
  <ellipse cx="22" cy="7" rx="2.2" ry="3" fill="#ffb347"/>
  <ellipse cx="32" cy="3" rx="2.2" ry="3" fill="#ff8c69"/>
  <ellipse cx="42" cy="7" rx="2.2" ry="3" fill="#ffb347"/>
  <!-- top frosting wave -->
  <path d="M10 24 Q16 18 22 24 Q28 18 34 24 Q40 18 46 24 Q52 18 54 24 L54 32 L10 32 Z" fill="#fff0f4"/>
  <!-- cake body -->
  <rect x="10" y="32" width="44" height="22" rx="4" fill="#d4607e"/>
  <!-- decoration dots -->
  <circle cx="22" cy="43" r="3" fill="#fff0f4"/>
  <circle cx="32" cy="43" r="3" fill="#fff0f4"/>
  <circle cx="42" cy="43" r="3" fill="#fff0f4"/>
  <!-- plate -->
  <ellipse cx="32" cy="54" rx="26" ry="4" fill="#b03060"/>
</svg>
